<svg width="360" height="187" viewBox="0 0 360 187" fill="none" xmlns="http://www.w3.org/2000/svg">
<path d="M26.8379 14V118.938H108.719" stroke="#111111" stroke-width="10"/>
<path d="M132.801 14L176.149 120.604L219.498 14" stroke="#111111" stroke-width="10"/>
<path d="M219.498 120.604L176.149 14L132.801 120.604" stroke="#111111" stroke-width="10"/>
<path d="M320.642 16.27C232.198 9.46581 229.803 62.1981 287.175 67.3014" stroke="#111111" stroke-width="10"/>
<path d="M253.213 118.334C341.657 125.138 344.052 72.4061 286.68 67.3027" stroke="#111111" stroke-width="10"/>
<path d="M330.274 67.3027H22.0176" stroke="#0A6EBD" stroke-width="10"/>
<path d="M17.7218 160.993V146.502H21.6278V157.914H27.2618V160.993H17.7218ZM116.178 146.502H120.102L124.674 160.993H120.75L120.156 158.67H116.106L115.512 160.993H111.606L116.178 146.502ZM119.418 155.754L118.14 150.714L116.844 155.754H119.418ZM234.075 146.502H237.999L242.571 160.993H238.647L238.053 158.67H234.003L233.409 160.993H229.503L234.075 146.502ZM237.315 155.754L236.037 150.714L234.741 155.754H237.315ZM91.9287 181.993H89.1027L86.6367 175.44V181.993H82.8927V167.502H86.5107L90.5247 178.14L94.5387 167.502H98.1387V181.993H94.3947V175.44L91.9287 181.993ZM219.955 177.708C219.955 180.318 218.137 182.245 214.501 182.245C210.973 182.245 209.047 180.408 209.047 177.852V177.564H212.935V177.888C212.935 178.734 213.457 179.31 214.501 179.31C215.545 179.31 216.067 178.734 216.067 177.888C216.067 177.042 215.581 176.538 214.195 176.268L213.097 176.034C210.613 175.548 208.921 174.216 208.921 171.57C208.921 169.086 210.865 167.25 214.159 167.25C217.561 167.25 219.397 169.158 219.397 171.39V171.643H215.509V171.39C215.509 170.652 215.023 170.202 214.159 170.202C213.277 170.202 212.809 170.652 212.809 171.39C212.809 172.2 213.349 172.65 214.735 172.938L215.833 173.136C218.461 173.676 219.955 175.134 219.955 177.708Z" fill="#0A6EBD"/>
<path d="M37.7346 154.044V159.39C37.7346 159.966 37.8246 160.614 38.0406 160.993H34.3506C34.2246 160.704 34.1166 160.254 34.0986 159.75C33.7026 160.65 32.7306 161.245 31.3806 161.245C29.3646 161.245 27.9786 160.02 27.9786 157.968C27.9786 155.934 29.3646 154.692 31.3806 154.692C32.6946 154.692 33.7026 155.25 34.0986 156.187V153.972C34.0986 153.306 33.7926 152.892 33.1086 152.892C32.4246 152.892 32.1006 153.288 32.1006 153.936L28.4826 153.954C28.4826 151.902 30.0486 150.39 33.1086 150.39C36.1146 150.39 37.7346 151.956 37.7346 154.044ZM31.5966 157.968C31.5966 158.652 32.0466 159.012 32.8566 159.012C33.6666 159.012 34.0986 158.652 34.0986 157.968C34.0986 157.284 33.6666 156.924 32.8566 156.924C32.0466 156.924 31.5966 157.284 31.5966 157.968ZM49.0591 154.35V160.993H45.4231V154.386C45.4231 153.396 45.0811 152.982 44.3611 152.982C43.4971 152.982 42.9931 153.72 42.9931 154.998V160.993H39.3751V150.643H42.9931V152.226C43.3531 151.128 44.3611 150.39 45.7831 150.39C47.8531 150.39 49.0591 151.668 49.0591 154.35ZM56.8553 155.808C56.8553 153.54 56.3513 152.982 55.3973 152.982C54.3713 152.982 53.9213 153.576 53.9213 155.808C53.9213 158.076 54.3713 158.67 55.3973 158.67C56.3693 158.67 56.8553 158.112 56.8553 155.808ZM60.4733 150.643V161.677C60.4733 164.089 58.9253 165.817 55.6493 165.817C52.6793 165.817 51.1133 164.431 50.8433 162.325H54.5153C54.5693 163.027 54.9653 163.369 55.6673 163.369C56.4773 163.369 56.8553 162.919 56.8553 161.929V159.426C56.5313 160.452 55.4873 161.245 54.0473 161.245C51.6173 161.245 50.2853 159.336 50.2853 155.808C50.2853 152.298 51.6173 150.39 54.0473 150.39C55.4153 150.39 56.5493 151.236 56.8553 152.208V150.643H60.4733ZM61.9446 157.284V150.643H65.5806V157.248C65.5806 158.256 65.9226 158.67 66.6426 158.67C67.5066 158.67 68.0106 157.914 68.0106 156.636V150.643H71.6286V160.993H68.0106V159.408C67.6506 160.524 66.6426 161.245 65.2206 161.245C63.1506 161.245 61.9446 159.966 61.9446 157.284ZM82.6467 154.044V159.39C82.6467 159.966 82.7367 160.614 82.9527 160.993H79.2627C79.1367 160.704 79.0287 160.254 79.0107 159.75C78.6147 160.65 77.6427 161.245 76.2927 161.245C74.2767 161.245 72.8907 160.02 72.8907 157.968C72.8907 155.934 74.2767 154.692 76.2927 154.692C77.6067 154.692 78.6147 155.25 79.0107 156.187V153.972C79.0107 153.306 78.7047 152.892 78.0207 152.892C77.3367 152.892 77.0127 153.288 77.0127 153.936L73.3947 153.954C73.3947 151.902 74.9607 150.39 78.0207 150.39C81.0267 150.39 82.6467 151.956 82.6467 154.044ZM76.5087 157.968C76.5087 158.652 76.9587 159.012 77.7687 159.012C78.5787 159.012 79.0107 158.652 79.0107 157.968C79.0107 157.284 78.5787 156.924 77.7687 156.924C76.9587 156.924 76.5087 157.284 76.5087 157.968ZM90.6053 155.808C90.6053 153.54 90.1013 152.982 89.1473 152.982C88.1213 152.982 87.6713 153.576 87.6713 155.808C87.6713 158.076 88.1213 158.67 89.1473 158.67C90.1193 158.67 90.6053 158.112 90.6053 155.808ZM94.2233 150.643V161.677C94.2233 164.089 92.6753 165.817 89.3993 165.817C86.4293 165.817 84.8633 164.431 84.5933 162.325H88.2653C88.3193 163.027 88.7153 163.369 89.4173 163.369C90.2273 163.369 90.6053 162.919 90.6053 161.929V159.426C90.2813 160.452 89.2373 161.245 87.7973 161.245C85.3673 161.245 84.0353 159.336 84.0353 155.808C84.0353 152.298 85.3673 150.39 87.7973 150.39C89.1653 150.39 90.2993 151.236 90.6053 152.208V150.643H94.2233ZM105.541 156.636H99.0606V156.852C99.0606 158.238 99.6006 158.868 100.537 158.868C101.347 158.868 101.779 158.437 101.869 157.806H105.379C104.983 160.146 103.129 161.245 100.537 161.245C97.1166 161.245 95.4786 159.192 95.4786 155.808C95.4786 152.46 97.0986 150.39 100.537 150.39C103.957 150.39 105.577 152.46 105.577 155.808C105.577 156.132 105.577 156.42 105.541 156.636ZM99.0606 154.728H101.995V154.71C101.995 153.432 101.401 152.766 100.537 152.766C99.5826 152.766 99.1506 153.432 99.0606 154.728ZM125.381 157.86H128.981V158.076C128.981 158.562 129.269 158.922 129.881 158.922C130.511 158.922 130.781 158.562 130.781 158.076C130.781 157.518 130.439 157.194 129.773 157.068C126.821 156.528 125.327 155.772 125.327 153.666C125.327 151.794 126.821 150.39 129.629 150.39C132.491 150.39 133.913 151.812 133.913 153.486V153.612H130.385V153.468C130.385 153.036 130.133 152.73 129.611 152.73C129.089 152.73 128.855 153.036 128.855 153.468C128.855 153.936 129.233 154.224 129.953 154.368C132.851 154.926 134.381 155.574 134.381 157.824C134.381 159.876 132.743 161.245 129.881 161.245C126.857 161.245 125.381 159.786 125.381 157.86ZM135.418 157.86H139.018V158.076C139.018 158.562 139.306 158.922 139.918 158.922C140.548 158.922 140.818 158.562 140.818 158.076C140.818 157.518 140.476 157.194 139.81 157.068C136.858 156.528 135.364 155.772 135.364 153.666C135.364 151.794 136.858 150.39 139.666 150.39C142.528 150.39 143.95 151.812 143.95 153.486V153.612H140.422V153.468C140.422 153.036 140.17 152.73 139.648 152.73C139.126 152.73 138.892 153.036 138.892 153.468C138.892 153.936 139.27 154.224 139.99 154.368C142.888 154.926 144.418 155.574 144.418 157.824C144.418 159.876 142.78 161.245 139.918 161.245C136.894 161.245 135.418 159.786 135.418 157.86ZM155.445 156.636H148.965V156.852C148.965 158.238 149.505 158.868 150.441 158.868C151.251 158.868 151.683 158.437 151.773 157.806H155.283C154.887 160.146 153.033 161.245 150.441 161.245C147.021 161.245 145.383 159.192 145.383 155.808C145.383 152.46 147.003 150.39 150.441 150.39C153.861 150.39 155.481 152.46 155.481 155.808C155.481 156.132 155.481 156.42 155.445 156.636ZM148.965 154.728H151.899V154.71C151.899 153.432 151.305 152.766 150.441 152.766C149.487 152.766 149.055 153.432 148.965 154.728ZM156.582 157.86H160.182V158.076C160.182 158.562 160.47 158.922 161.082 158.922C161.712 158.922 161.982 158.562 161.982 158.076C161.982 157.518 161.64 157.194 160.974 157.068C158.022 156.528 156.528 155.772 156.528 153.666C156.528 151.794 158.022 150.39 160.83 150.39C163.692 150.39 165.114 151.812 165.114 153.486V153.612H161.586V153.468C161.586 153.036 161.334 152.73 160.812 152.73C160.29 152.73 160.056 153.036 160.056 153.468C160.056 153.936 160.434 154.224 161.154 154.368C164.052 154.926 165.582 155.574 165.582 157.824C165.582 159.876 163.944 161.245 161.082 161.245C158.058 161.245 156.582 159.786 156.582 157.86ZM166.619 157.86H170.219V158.076C170.219 158.562 170.507 158.922 171.119 158.922C171.749 158.922 172.019 158.562 172.019 158.076C172.019 157.518 171.677 157.194 171.011 157.068C168.059 156.528 166.565 155.772 166.565 153.666C166.565 151.794 168.059 150.39 170.867 150.39C173.729 150.39 175.151 151.812 175.151 153.486V153.612H171.623V153.468C171.623 153.036 171.371 152.73 170.849 152.73C170.327 152.73 170.093 153.036 170.093 153.468C170.093 153.936 170.471 154.224 171.191 154.368C174.089 154.926 175.619 155.574 175.619 157.824C175.619 159.876 173.981 161.245 171.119 161.245C168.095 161.245 166.619 159.786 166.619 157.86ZM188.896 160.993V154.368C188.896 153.414 188.536 152.982 187.852 152.982C186.988 152.982 186.484 153.72 186.484 154.998V160.993H182.866V154.368C182.866 153.414 182.506 152.982 181.804 152.982C180.94 152.982 180.454 153.72 180.454 154.998V160.993H176.836V150.643H180.454V152.226C180.814 151.128 181.822 150.39 183.226 150.39C184.612 150.39 185.656 150.984 186.124 152.244C186.646 151.128 187.69 150.39 189.22 150.39C191.344 150.39 192.514 151.668 192.514 154.35V160.993H188.896ZM203.82 156.636H197.34V156.852C197.34 158.238 197.88 158.868 198.816 158.868C199.626 158.868 200.058 158.437 200.148 157.806H203.658C203.262 160.146 201.408 161.245 198.816 161.245C195.396 161.245 193.758 159.192 193.758 155.808C193.758 152.46 195.378 150.39 198.816 150.39C202.236 150.39 203.856 152.46 203.856 155.808C203.856 156.132 203.856 156.42 203.82 156.636ZM197.34 154.728H200.274V154.71C200.274 153.432 199.68 152.766 198.816 152.766C197.862 152.766 197.43 153.432 197.34 154.728ZM214.821 154.35V160.993H211.185V154.386C211.185 153.396 210.843 152.982 210.123 152.982C209.259 152.982 208.755 153.72 208.755 154.998V160.993H205.137V150.643H208.755V152.226C209.115 151.128 210.123 150.39 211.545 150.39C213.615 150.39 214.821 151.668 214.821 154.35ZM220.892 153.288V157.068C220.892 158.238 221.252 158.508 222.53 158.508H223.574V161.083C223.07 161.119 222.008 161.137 221.396 161.137C218.318 161.137 217.256 160.11 217.256 157.482V153.288H215.708V150.643H217.256V147.708H220.892V150.643H223.574V153.288H220.892ZM248.173 153.288V157.068C248.173 158.238 248.533 158.508 249.811 158.508H250.855V161.083C250.351 161.119 249.289 161.137 248.677 161.137C245.599 161.137 244.537 160.11 244.537 157.482V153.288H242.989V150.643H244.537V147.708H248.173V150.643H250.855V153.288H248.173ZM256.663 153.288V157.068C256.663 158.238 257.023 158.508 258.301 158.508H259.345V161.083C258.841 161.119 257.779 161.137 257.167 161.137C254.089 161.137 253.027 160.11 253.027 157.482V153.288H251.479V150.643H253.027V147.708H256.663V150.643H259.345V153.288H256.663ZM270.3 156.636H263.82V156.852C263.82 158.238 264.36 158.868 265.296 158.868C266.106 158.868 266.538 158.437 266.628 157.806H270.138C269.742 160.146 267.888 161.245 265.296 161.245C261.876 161.245 260.238 159.192 260.238 155.808C260.238 152.46 261.858 150.39 265.296 150.39C268.716 150.39 270.336 152.46 270.336 155.808C270.336 156.132 270.336 156.42 270.3 156.636ZM263.82 154.728H266.754V154.71C266.754 153.432 266.16 152.766 265.296 152.766C264.342 152.766 263.91 153.432 263.82 154.728ZM281.301 154.35V160.993H277.665V154.386C277.665 153.396 277.323 152.982 276.603 152.982C275.739 152.982 275.235 153.72 275.235 154.998V160.993H271.617V150.643H275.235V152.226C275.595 151.128 276.603 150.39 278.025 150.39C280.095 150.39 281.301 151.668 281.301 154.35ZM289.097 160.993V159.426C288.773 160.452 287.729 161.245 286.289 161.245C283.859 161.245 282.527 159.354 282.527 155.808C282.527 152.298 283.859 150.39 286.289 150.39C287.729 150.39 288.773 151.182 289.097 152.208V146.502H292.715V160.993H289.097ZM289.097 155.808C289.097 153.54 288.593 152.982 287.639 152.982C286.613 152.982 286.163 153.576 286.163 155.808C286.163 158.076 286.613 158.67 287.639 158.67C288.611 158.67 289.097 158.112 289.097 155.808ZM303.727 154.044V159.39C303.727 159.966 303.817 160.614 304.033 160.993H300.343C300.217 160.704 300.109 160.254 300.091 159.75C299.695 160.65 298.723 161.245 297.373 161.245C295.357 161.245 293.971 160.02 293.971 157.968C293.971 155.934 295.357 154.692 297.373 154.692C298.687 154.692 299.695 155.25 300.091 156.187V153.972C300.091 153.306 299.785 152.892 299.101 152.892C298.417 152.892 298.093 153.288 298.093 153.936L294.475 153.954C294.475 151.902 296.041 150.39 299.101 150.39C302.107 150.39 303.727 151.956 303.727 154.044ZM297.589 157.968C297.589 158.652 298.039 159.012 298.849 159.012C299.659 159.012 300.091 158.652 300.091 157.968C300.091 157.284 299.659 156.924 298.849 156.924C298.039 156.924 297.589 157.284 297.589 157.968ZM315.051 154.35V160.993H311.415V154.386C311.415 153.396 311.073 152.982 310.353 152.982C309.489 152.982 308.985 153.72 308.985 154.998V160.993H305.367V150.643H308.985V152.226C309.345 151.128 310.353 150.39 311.775 150.39C313.845 150.39 315.051 151.668 315.051 154.35ZM316.277 155.808C316.277 152.442 317.933 150.39 321.335 150.39C324.287 150.39 326.177 151.884 326.285 154.512H322.739C322.667 153.558 322.271 153.036 321.335 153.036C320.273 153.036 319.859 153.81 319.859 155.808C319.859 158.022 320.381 158.598 321.335 158.598C322.271 158.598 322.667 158.094 322.739 157.122H326.285C326.177 159.75 324.287 161.245 321.335 161.245C317.933 161.245 316.277 159.21 316.277 155.808ZM337.22 156.636H330.74V156.852C330.74 158.238 331.28 158.868 332.216 158.868C333.026 158.868 333.458 158.437 333.548 157.806H337.058C336.662 160.146 334.808 161.245 332.216 161.245C328.796 161.245 327.158 159.192 327.158 155.808C327.158 152.46 328.778 150.39 332.216 150.39C335.636 150.39 337.256 152.46 337.256 155.808C337.256 156.132 337.256 156.42 337.22 156.636ZM330.74 154.728H333.674V154.71C333.674 153.432 333.08 152.766 332.216 152.766C331.262 152.766 330.83 153.432 330.74 154.728ZM109.286 175.044V180.39C109.286 180.966 109.376 181.614 109.592 181.993H105.902C105.776 181.704 105.668 181.254 105.65 180.75C105.254 181.65 104.282 182.245 102.932 182.245C100.916 182.245 99.5304 181.02 99.5304 178.968C99.5304 176.934 100.916 175.692 102.932 175.692C104.246 175.692 105.254 176.25 105.65 177.187V174.972C105.65 174.306 105.344 173.892 104.66 173.892C103.976 173.892 103.652 174.288 103.652 174.936L100.034 174.954C100.034 172.902 101.6 171.39 104.66 171.39C107.666 171.39 109.286 172.956 109.286 175.044ZM103.148 178.968C103.148 179.652 103.598 180.012 104.408 180.012C105.218 180.012 105.65 179.652 105.65 178.968C105.65 178.284 105.218 177.924 104.408 177.924C103.598 177.924 103.148 178.284 103.148 178.968ZM120.611 175.35V181.993H116.975V175.386C116.975 174.396 116.633 173.982 115.913 173.982C115.049 173.982 114.545 174.72 114.545 175.998V181.993H110.927V171.643H114.545V173.226C114.905 172.128 115.913 171.39 117.335 171.39C119.405 171.39 120.611 172.668 120.611 175.35ZM131.593 175.044V180.39C131.593 180.966 131.683 181.614 131.899 181.993H128.209C128.083 181.704 127.975 181.254 127.957 180.75C127.561 181.65 126.589 182.245 125.239 182.245C123.223 182.245 121.837 181.02 121.837 178.968C121.837 176.934 123.223 175.692 125.239 175.692C126.553 175.692 127.561 176.25 127.957 177.187V174.972C127.957 174.306 127.651 173.892 126.967 173.892C126.283 173.892 125.959 174.288 125.959 174.936L122.341 174.954C122.341 172.902 123.907 171.39 126.967 171.39C129.973 171.39 131.593 172.956 131.593 175.044ZM125.455 178.968C125.455 179.652 125.905 180.012 126.715 180.012C127.525 180.012 127.957 179.652 127.957 178.968C127.957 178.284 127.525 177.924 126.715 177.924C125.905 177.924 125.455 178.284 125.455 178.968ZM139.552 176.808C139.552 174.54 139.048 173.982 138.094 173.982C137.068 173.982 136.618 174.576 136.618 176.808C136.618 179.076 137.068 179.67 138.094 179.67C139.066 179.67 139.552 179.112 139.552 176.808ZM143.17 171.643V182.677C143.17 185.089 141.622 186.817 138.346 186.817C135.376 186.817 133.81 185.431 133.54 183.325H137.212C137.266 184.027 137.662 184.369 138.364 184.369C139.174 184.369 139.552 183.919 139.552 182.929V180.426C139.228 181.452 138.184 182.245 136.744 182.245C134.314 182.245 132.982 180.336 132.982 176.808C132.982 173.298 134.314 171.39 136.744 171.39C138.112 171.39 139.246 172.236 139.552 173.208V171.643H143.17ZM154.487 177.636H148.007V177.852C148.007 179.238 148.547 179.868 149.483 179.868C150.293 179.868 150.725 179.437 150.815 178.806H154.325C153.929 181.146 152.075 182.245 149.483 182.245C146.063 182.245 144.425 180.192 144.425 176.808C144.425 173.46 146.045 171.39 149.483 171.39C152.903 171.39 154.523 173.46 154.523 176.808C154.523 177.132 154.523 177.42 154.487 177.636ZM148.007 175.728H150.941V175.71C150.941 174.432 150.347 173.766 149.483 173.766C148.529 173.766 148.097 174.432 148.007 175.728ZM167.864 181.993V175.368C167.864 174.414 167.504 173.982 166.82 173.982C165.956 173.982 165.452 174.72 165.452 175.998V181.993H161.834V175.368C161.834 174.414 161.474 173.982 160.772 173.982C159.908 173.982 159.422 174.72 159.422 175.998V181.993H155.804V171.643H159.422V173.226C159.782 172.128 160.79 171.39 162.194 171.39C163.58 171.39 164.624 171.984 165.092 173.244C165.614 172.128 166.658 171.39 168.188 171.39C170.312 171.39 171.482 172.668 171.482 175.35V181.993H167.864ZM182.788 177.636H176.308V177.852C176.308 179.238 176.848 179.868 177.784 179.868C178.594 179.868 179.026 179.437 179.116 178.806H182.626C182.23 181.146 180.376 182.245 177.784 182.245C174.364 182.245 172.726 180.192 172.726 176.808C172.726 173.46 174.346 171.39 177.784 171.39C181.204 171.39 182.824 173.46 182.824 176.808C182.824 177.132 182.824 177.42 182.788 177.636ZM176.308 175.728H179.242V175.71C179.242 174.432 178.648 173.766 177.784 173.766C176.83 173.766 176.398 174.432 176.308 175.728ZM193.789 175.35V181.993H190.153V175.386C190.153 174.396 189.811 173.982 189.091 173.982C188.227 173.982 187.723 174.72 187.723 175.998V181.993H184.105V171.643H187.723V173.226C188.083 172.128 189.091 171.39 190.513 171.39C192.583 171.39 193.789 172.668 193.789 175.35ZM199.86 174.288V178.068C199.86 179.238 200.22 179.508 201.498 179.508H202.542V182.083C202.038 182.119 200.976 182.137 200.364 182.137C197.286 182.137 196.224 181.11 196.224 178.482V174.288H194.676V171.643H196.224V168.708H199.86V171.643H202.542V174.288H199.86ZM224.021 182.749L224.273 181.993L220.619 171.643H224.309L226.037 178.014L227.729 171.643H231.437L227.477 183.145C226.541 185.845 225.767 186.511 223.481 186.511C223.013 186.511 222.311 186.511 221.861 186.457V183.865H222.635C223.301 183.865 223.715 183.631 224.021 182.749ZM232.036 178.86H235.636V179.076C235.636 179.562 235.924 179.922 236.536 179.922C237.166 179.922 237.436 179.562 237.436 179.076C237.436 178.518 237.094 178.194 236.428 178.068C233.476 177.528 231.982 176.772 231.982 174.666C231.982 172.794 233.476 171.39 236.284 171.39C239.146 171.39 240.568 172.812 240.568 174.486V174.612H237.04V174.468C237.04 174.036 236.788 173.73 236.266 173.73C235.744 173.73 235.51 174.036 235.51 174.468C235.51 174.936 235.888 175.224 236.608 175.368C239.506 175.926 241.036 176.574 241.036 178.824C241.036 180.876 239.398 182.245 236.536 182.245C233.512 182.245 232.036 180.786 232.036 178.86ZM246.618 174.288V178.068C246.618 179.238 246.978 179.508 248.256 179.508H249.3V182.083C248.796 182.119 247.734 182.137 247.122 182.137C244.044 182.137 242.982 181.11 242.982 178.482V174.288H241.434V171.643H242.982V168.708H246.618V171.643H249.3V174.288H246.618ZM260.254 177.636H253.774V177.852C253.774 179.238 254.314 179.868 255.25 179.868C256.06 179.868 256.492 179.437 256.582 178.806H260.092C259.696 181.146 257.842 182.245 255.25 182.245C251.83 182.245 250.192 180.192 250.192 176.808C250.192 173.46 251.812 171.39 255.25 171.39C258.67 171.39 260.29 173.46 260.29 176.808C260.29 177.132 260.29 177.42 260.254 177.636ZM253.774 175.728H256.708V175.71C256.708 174.432 256.114 173.766 255.25 173.766C254.296 173.766 253.864 174.432 253.774 175.728ZM273.631 181.993V175.368C273.631 174.414 273.271 173.982 272.587 173.982C271.723 173.982 271.219 174.72 271.219 175.998V181.993H267.601V175.368C267.601 174.414 267.241 173.982 266.539 173.982C265.675 173.982 265.189 174.72 265.189 175.998V181.993H261.571V171.643H265.189V173.226C265.549 172.128 266.557 171.39 267.961 171.39C269.347 171.39 270.391 171.984 270.859 173.244C271.381 172.128 272.425 171.39 273.955 171.39C276.079 171.39 277.249 172.668 277.249 175.35V181.993H273.631Z" fill="#111111"/>
</svg>
