<svg width="26" height="26" viewBox="0 0 26 26" fill="none" xmlns="http://www.w3.org/2000/svg">
<path d="M22 19V20H4V19L6 17V11C6 7.9 8.03 5.17 11 4.29V4C11 3.46957 11.2107 2.96086 11.5858 2.58579C11.9609 2.21071 12.4696 2 13 2C13.5304 2 14.0391 2.21071 14.4142 2.58579C14.7893 2.96086 15 3.46957 15 4V4.29C17.97 5.17 20 7.9 20 11V17L22 19ZM15 21C15 21.5304 14.7893 22.0391 14.4142 22.4142C14.0391 22.7893 13.5304 23 13 23C12.4696 23 11.9609 22.7893 11.5858 22.4142C11.2107 22.0391 11 21.5304 11 21" fill="#F2F2F2"/>
</svg>
