<svg width="50" height="50" viewBox="0 0 50 50" fill="none" xmlns="http://www.w3.org/2000/svg">
<circle cx="25" cy="25" r="25" fill="#323232"/>
<path d="M25.1389 23.0903C21.1979 22.066 19.9306 21.0069 19.9306 19.3576C19.9306 17.4653 21.684 16.1458 24.6181 16.1458C27.7083 16.1458 28.8542 17.6215 28.9583 19.7917H32.7951C32.6736 16.8056 30.8507 14.0625 27.2222 13.1771V9.375H22.0139V13.125C18.6458 13.8542 15.9375 16.0417 15.9375 19.3924C15.9375 23.4028 19.2535 25.3993 24.0972 26.5625C28.4375 27.6042 29.3056 29.1319 29.3056 30.7465C29.3056 31.9444 28.4549 33.8542 24.6181 33.8542C21.0417 33.8542 19.6354 32.2569 19.4444 30.2083H15.625C15.8333 34.0104 18.6806 36.1458 22.0139 36.8576V40.625H27.2222V36.8924C30.6076 36.25 33.2986 34.2882 33.2986 30.7292C33.2986 25.7986 29.0799 24.1146 25.1389 23.0903Z" fill="white"/>
</svg>
